<svg width="25" height="24" viewBox="0 0 25 24" fill="none" xmlns="http://www.w3.org/2000/svg">
<path fill-rule="evenodd" clip-rule="evenodd" d="M12.3031 0C5.50677 0 0 5.50677 0 12.3031C0 17.7378 3.52434 22.3515 8.41435 23.9775C9.03111 24.0896 9.25538 23.7132 9.25538 23.3848C9.25538 23.0924 9.24337 22.3195 9.23936 21.2942C5.81515 22.0351 5.09427 19.6442 5.09427 19.6442C4.53358 18.2224 3.72859 17.8419 3.72859 17.8419C2.61121 17.081 3.81269 17.097 3.81269 17.097C5.04621 17.1851 5.69501 18.3626 5.69501 18.3626C6.79236 20.2449 8.57455 19.7002 9.27541 19.3878C9.38755 18.5909 9.70794 18.0502 10.0564 17.7418C7.32501 17.4334 4.45348 16.3761 4.45348 11.6623C4.45348 10.3167 4.93407 9.21934 5.71903 8.35828C5.59488 8.0499 5.17036 6.79636 5.83918 5.10228C5.83918 5.10228 6.87245 4.77387 9.22334 6.36383C10.2046 6.09149 11.2578 5.95533 12.3031 5.95132C13.3484 5.95533 14.4017 6.09149 15.3829 6.36383C17.7338 4.77387 18.7631 5.10228 18.7631 5.10228C19.4359 6.79636 19.0154 8.0499 18.8872 8.35828C19.6762 9.21934 20.1488 10.3167 20.1488 11.6623C20.1488 16.3882 17.2732 17.4254 14.5339 17.7338C14.9744 18.1103 15.3669 18.8632 15.3669 20.0086C15.3669 21.6546 15.3549 22.9803 15.3549 23.3848C15.3549 23.7132 15.5752 24.0976 16.1999 23.9775C21.0859 22.3475 24.6063 17.7378 24.6063 12.3031C24.6063 5.50677 19.0995 0 12.3031 0Z" fill="black"/>
</svg>
