<svg width="18" height="18" viewBox="0 0 18 18" fill="none" xmlns="http://www.w3.org/2000/svg">
<path d="M2.4812 0.75C1.45581 0.75 0.606201 1.59961 0.606201 2.625V15.375C0.606201 16.4004 1.45581 17.25 2.4812 17.25H15.2312C16.2566 17.25 17.1062 16.4004 17.1062 15.375V2.625C17.1062 1.59961 16.2566 0.75 15.2312 0.75H2.4812ZM2.4812 2.25H15.2312C15.4451 2.25 15.6062 2.41113 15.6062 2.625V15.375C15.6062 15.5889 15.4451 15.75 15.2312 15.75H2.4812C2.26733 15.75 2.1062 15.5889 2.1062 15.375V2.625C2.1062 2.41113 2.26733 2.25 2.4812 2.25ZM4.68433 3.53906C3.97241 3.53906 3.39526 4.11621 3.39526 4.82812C3.39526 5.54004 3.97241 6.11719 4.68433 6.11719C5.39624 6.11719 5.97339 5.54004 5.97339 4.82812C5.97339 4.11621 5.39624 3.53906 4.68433 3.53906ZM11.4578 6.96094C10.3826 6.96094 9.66772 7.5498 9.37183 8.10938H9.32495V7.125H7.21558V14.25H9.4187V10.7344C9.4187 9.80566 9.60327 8.90625 10.7546 8.90625C11.8884 8.90625 11.9031 9.95508 11.9031 10.7812V14.25H14.1062V10.3359C14.1062 8.41992 13.699 6.96094 11.4578 6.96094ZM3.6062 7.125V14.25H5.83276V7.125H3.6062Z" fill="black"/>
</svg>
