<svg width="25" height="24" viewBox="0 0 25 24" fill="none" xmlns="http://www.w3.org/2000/svg">
<path d="M5.84222 0.013382C5.36008 0.013382 4.88513 0.18609 4.48934 0.502721L4.43177 0.531505L4.40299 0.56029L1.52453 3.52511L1.55331 3.55389C0.664585 4.37425 0.391131 5.6012 0.776125 6.66263C0.779723 6.66983 0.772528 6.68422 0.776125 6.69142C1.55691 8.92582 3.55384 13.2399 7.45416 17.1402C11.3689 21.0549 15.7405 22.9727 17.903 23.8183H17.9318C19.0508 24.1925 20.2633 23.9262 21.1269 23.185L24.0341 20.2778C24.7969 19.515 24.7969 18.1909 24.0341 17.4281L20.2921 13.6861L20.2633 13.6285C19.5005 12.8657 18.1476 12.8657 17.3849 13.6285L15.5426 15.4707C14.877 15.1505 13.2902 14.3301 11.7719 12.8801C10.2643 11.4409 9.49427 9.78576 9.21002 9.13811L11.0522 7.29589C11.8258 6.52231 11.8402 5.23419 11.0235 4.475L11.0522 4.44622L10.9659 4.35986L7.28145 0.56029L7.25267 0.531505L7.1951 0.502721C6.79931 0.18609 6.32436 0.013382 5.84222 0.013382ZM5.84222 1.8556C5.91058 1.8556 5.97895 1.88798 6.04371 1.94195L9.72814 5.71274L9.8145 5.79909C9.8073 5.7919 9.86847 5.88904 9.75693 6.00059L7.45416 8.30336L7.02239 8.70634L7.22388 9.28203C7.22388 9.28203 8.28172 12.1137 10.5053 14.233L10.7068 14.4057C12.8477 16.3595 15.3699 17.4281 15.3699 17.4281L15.9456 17.6871L18.6802 14.9526C18.8385 14.7943 18.8097 14.7943 18.968 14.9526L22.7388 18.7234C22.8971 18.8817 22.8971 18.8241 22.7388 18.9825L19.9179 21.8033C19.4933 22.1668 19.0436 22.2423 18.5075 22.0624C16.4206 21.242 12.3655 19.461 8.74947 15.8449C5.10461 12.2001 3.20123 8.06588 2.5032 6.05815C2.36288 5.68395 2.46362 5.12985 2.79105 4.8492L2.84862 4.79163L5.64073 1.94195C5.70549 1.88798 5.77386 1.8556 5.84222 1.8556Z" fill="black"/>
</svg>
